<?xml version="1.0" encoding="iso-8859-1"?>
<!-- Generator: Adobe Illustrator 18.0.0, SVG Export Plug-In . SVG Version: 6.00 Build 0)  -->
<!DOCTYPE svg PUBLIC "-//W3C//DTD SVG 1.1//EN" "http://www.w3.org/Graphics/SVG/1.1/DTD/svg11.dtd">
<svg version="1.1" id="Capa_1" xmlns="http://www.w3.org/2000/svg" xmlns:xlink="http://www.w3.org/1999/xlink" x="0px" y="0px"
	 viewBox="0 0 433.85 433.85" style="enable-background:new 0 0 433.85 433.85;" xml:space="preserve">
<g>
	<path d="M422.915,200.86c0-38.652-43.174-73.099-112.862-90.233c-4.564-10.726-12.378-19.36-22.933-23.987
		c-18.169-7.956-39.571-1.932-55.239,13.496c-4.858-0.172-9.872-0.266-14.957-0.266c-54.757,0-107.36,10.639-145.738,29.321
		c-4.436-29.427-5.975-66.928,4.603-102.085c0.687-2.282-0.333-4.732-2.437-5.854c-2.104-1.121-4.706-0.601-6.217,1.243
		c-5.68,6.927-10.132,13.566-13.625,20.038c0.452-13.27,2.236-27.497,7.01-34.798c1.206-1.845,1.062-4.263-0.355-5.951
		s-3.773-2.249-5.799-1.381C34.301,9.003,19.188,40.781,20.674,71.243l0.152,3.165c0.924,19.363,2.191,45.873,9.993,82.741
		c-13.187,13.601-19.885,28.292-19.885,43.71c0,4.108,0.487,8.185,1.454,12.214c0.811,3.378,38.889,158.499,39.823,160.109
		c10.273,17.671,31.516,32.835,61.433,43.854c29.864,11,65.578,16.813,103.279,16.813c37.954,0,73.858-5.883,103.83-17.013
		c30.053-11.159,51.246-26.494,61.291-44.35c2.376-4.233,38.715-156.351,39.532-159.901
		C422.467,208.716,422.915,204.802,422.915,200.86z M399.466,259.514c-29.551,34.865-102.645,58.226-182.541,58.226
		c-79.862,0-152.941-23.347-182.508-58.193c-1.099-4.78-2.226-9.689-3.378-14.725c33.646,34.58,105.353,57.037,185.886,57.037
		c80.562,0,152.281-22.467,185.905-57.059C401.682,249.833,400.56,254.739,399.466,259.514z M43.138,204.684
		c1.059,3.489,3.786,6.156,7.294,7.136c0.95,0.265,1.916,0.395,2.872,0.395c2.583,0,5.102-0.946,7.087-2.729
		c4.252-3.817,7.736-7.704,8.763-8.875l8.158-6.604c4.889-3.958,6.827-10.385,4.937-16.374c-0.261-0.829-0.547-1.751-0.85-2.75
		c33.879-17.413,80.4-27.677,129.13-28.504c-0.257,3.412,0.02,10.285,0.033,10.339c0.208,1.865,1.432,3.424,3.115,4.093
		c15.525,6.617,41.947,14.308,80.888,14.307c1.489,0,4.647-0.041,4.662-0.042c1.614-0.042,3.18-0.857,4.105-2.325
		c1.933-3.063,3.682-6.365,5.201-9.821c0.631-1.439,1.195-2.888,1.726-4.338c52.096,14.776,87.279,41.343,92.953,70.241
		c-8.747,12.305-23.315,23.748-42.247,33.37c-14.265,4.517-40.908,6.046-66.692,7.523c-37.67,2.158-61.169,3.847-69.262,11.04
		c-2.063,1.835-2.249,4.995-0.415,7.06c0.988,1.111,2.36,1.678,3.739,1.678c1.182,0,2.367-0.416,3.32-1.263
		c5.903-5.248,37.667-7.068,63.188-8.531c8.34-0.478,16.769-0.961,24.886-1.553c-30.877,8.982-66.058,13.707-102.808,13.707
		c-5.101,0-10.169-0.098-15.203-0.278c-0.162-2.275,0.16-5.635,2.447-9.208c9.831-15.355,44.128-18.941,63.696-19.712
		c74.342-2.927,106.481-15.53,107.468-42.145c0.253-6.859-3.222-16.25-21.219-22.028c-9.543-3.064-19.017-3.781-19.416-3.811
		c-2.741-0.184-5.149,1.871-5.35,4.625s1.87,5.148,4.625,5.349c6.729,0.49,31.771,4.554,31.366,15.495
		c-0.291,7.853-1.064,28.712-97.867,32.522c-38.229,1.505-62.361,9.686-71.726,24.313c-3.333,5.206-4.123,10.241-4.028,14.117
		c-33.649-2.021-65.375-8.083-92.889-17.85c-24.084-8.549-43.79-19.691-57.312-32.211c16.437-12.459,23.664-8.354,38.156-0.093
		c5.998,3.421,12.796,7.298,21.504,10.71c9.126,3.576,20.533,6.795,32.027,6.795c8.368,0,16.783-1.707,24.392-6.227
		c11.191-6.646,15.204-16.267,15.369-16.673c1.035-2.545-0.183-5.432-2.72-6.485c-2.536-1.053-5.456,0.154-6.529,2.684
		c-0.5,1.179-12.768,28.67-58.891,10.596c-8.032-3.147-14.496-6.833-20.199-10.086c-15.329-8.742-27.611-15.726-50.091,1.555
		c-1.411-1.648-2.716-3.315-3.912-4.999c1.661-8.497,5.797-16.785,12.333-24.739C43.019,204.281,43.076,204.479,43.138,204.684z
		 M278.782,164.655c-15.667-0.92-28.757-3.139-39.441-5.834c0.781-10.319,9.408-18.48,19.923-18.48c11.028,0,20,8.972,20,20
		C279.265,161.813,279.092,163.253,278.782,164.655z M412.915,200.86c0,5.246-1.001,10.462-2.971,15.603
		c-11.483-28.651-46.394-53.167-96.885-67.473c2.038-9.346,2.112-18.63,0.421-27.162
		C374.175,138.021,412.915,168.577,412.915,200.86z M283.107,95.799c8.784,3.851,15.128,11.333,18.59,20.674
		c0.042,0.125,0.407,1.12,0.533,1.501c3.974,12.012,3.326,26.831-2.853,40.933c-0.944,2.147-1.993,4.221-3.122,6.198
		c-2.508,0.014-4.963-0.004-7.363-0.054c0.244-1.546,0.373-3.118,0.373-4.712c0-16.542-13.458-30-30-30
		c-15.081,0-27.593,11.188-29.687,25.698c-3.395-1.084-6.469-2.197-9.225-3.294c-0.202-8.685,1.614-17.651,5.321-26.116
		C237.026,100.731,262.791,86.904,283.107,95.799z M216.924,109.87c2.255,0,4.491,0.023,6.711,0.058
		c-2.713,3.883-5.118,8.119-7.121,12.687c-1.961,4.479-3.458,9.088-4.492,13.74c-49.969,0.636-97.96,10.995-133.399,28.73
		c-1.847-6.962-3.9-15.66-5.718-25.591C110.129,120.641,162.339,109.87,216.924,109.87z M72.713,180.642
		c0.645,2.043-0.02,4.238-1.692,5.593l-2.836,2.296c-4.159-13.334-12.899-43.709-14.864-69.248
		c-1.971-25.62-3.531-45.89,6.911-67.891C51.963,107.653,67.173,163.096,72.713,180.642z M30.662,70.757
		C29.74,51.853,36.083,31.996,45.8,19.794c-1.292,6.57-2.068,14.369-2.322,23.356c-0.338,11.979,0.368,22.208,0.594,25.082
		c-3.427,16.654-2.155,33.195-0.723,51.817c2.322,30.184,13.328,65.601,16.654,75.769c-1.5,1.616-3.766,3.957-6.293,6.225
		c-0.065,0.059-0.261,0.235-0.59,0.144c-0.316-0.089-0.387-0.321-0.414-0.409C33.972,140.096,32.072,100.28,30.815,73.932
		L30.662,70.757z M33.508,169.119c1.769,7.479,3.794,15.338,6.132,23.623c-7.178,7.55-12.439,15.485-15.737,23.715
		c-1.968-5.138-2.968-10.353-2.968-15.597C20.935,189.942,25.16,179.297,33.508,169.119z M373.27,367.69
		c-8.769,15.497-28.648,29.618-55.996,39.773c-28.871,10.72-63.571,16.387-100.349,16.387c-72.751,0-136.873-22.857-156.008-55.591
		c-1.772-3.966-9.961-37.291-22.296-90.504c36.266,30.76,103.496,49.985,178.304,49.985c74.847,0,142.098-19.239,178.354-50.022
		C383.059,330.633,374.976,363.756,373.27,367.69z"/>
	<path d="M182.733,235.532c-1.916,1.988-1.856,5.154,0.133,7.069c0.97,0.935,2.22,1.398,3.468,1.398
		c1.311,0,2.621-0.513,3.602-1.532c8.764-9.101,30.398-10.481,46.195-11.489c6.307-0.402,11.754-0.75,15.942-1.499
		c2.497-0.446,10.096-1.804,10.58-8.096c0.656-8.534-11.724-12.625-23.921-15.5c-10.382-2.448-20.659-3.787-21.091-3.843
		c-2.743-0.354-5.246,1.58-5.599,4.319c-0.353,2.738,1.581,5.245,4.319,5.599c13.663,1.763,27.213,5.01,33.374,7.783
		c-3.853,0.594-9.623,0.962-14.241,1.257C217.092,222.173,194.19,223.635,182.733,235.532z"/>
	<path d="M83.804,213.805c4.841,4.353,14.054,5.513,22.507,5.513c7.844-0.001,15.033-1,17.457-1.377
		c2.728-0.423,4.596-2.978,4.174-5.705c-0.422-2.728-2.972-4.605-5.706-4.177c-10.28,1.589-27.479,2.148-31.748-1.691
		c-0.452-0.406-0.515-0.665-0.493-1.13c0.194-4.065,4.241-9.16,11.396-14.347c6.12-4.437,12.313-7.323,12.375-7.353
		c2.505-1.158,3.598-4.127,2.441-6.634c-1.157-2.507-4.129-3.6-6.635-2.444c-2.943,1.358-28.778,13.75-29.565,30.302
		C79.839,208.294,81.152,211.421,83.804,213.805z"/>
	<path d="M108.668,196.333c0,1.678,0.691,3.236,1.947,4.389c3.197,2.936,9.029,2.566,23.086,1.363
		c8.242-0.704,25.075-2.144,28.93,0.13c-0.398,3.072-4.05,8.504-13.313,15.211c-8.775,6.353-18.602,11.003-24.447,12.794
		c-2.641,0.809-4.125,3.604-3.316,6.245c0.66,2.152,2.639,3.537,4.779,3.536c0.485,0,0.978-0.071,1.466-0.221
		c12.771-3.912,44.869-20.994,44.869-38.114c0-2.542-1.003-4.808-2.901-6.551c-5.702-5.234-18.32-4.585-36.917-2.994
		c-2.44,0.209-5.24,0.448-7.847,0.622c4.524-2.49,10.793-5.366,17.088-7.729c2.585-0.971,3.895-3.853,2.925-6.438
		s-3.85-3.896-6.437-2.926c-0.281,0.105-6.967,2.621-13.769,5.938C113.345,187.178,108.668,191.45,108.668,196.333z"/>
	<path d="M151.662,166.001c0.217,0,0.436-0.015,0.656-0.043c0.213-0.028,21.555-2.8,48.139-3.889
		c2.759-0.113,4.904-2.441,4.791-5.201c-0.113-2.759-2.438-4.908-5.2-4.791c-27.027,1.108-48.813,3.937-49.03,3.965
		c-2.738,0.359-4.667,2.87-4.308,5.608C147.041,164.168,149.19,166.001,151.662,166.001z"/>
	<path d="M163.044,176c-0.014,0-0.028,0-0.043,0c-2.741,0-4.976,2.211-4.999,4.958c-0.023,2.761,2.196,5.019,4.958,5.042
		c7.659,0.064,20.093,2.445,22.454,7.351c1.649,3.426-2.015,8.924-4.347,11.896c-1.704,2.174-1.324,5.316,0.849,7.021
		c0.916,0.718,2.002,1.065,3.082,1.065c1.483,0,2.952-0.657,3.938-1.914c6.691-8.533,8.538-16.071,5.488-22.406
		C188.435,176.572,165.625,176.023,163.044,176z"/>
	<path d="M162.232,258.701c-14.748,13.955-39.231,9.703-57.173,3.678c-20.36-6.837-37.202-17.489-37.37-17.596
		c-2.329-1.483-5.419-0.799-6.903,1.53c-1.484,2.328-0.8,5.418,1.527,6.902c0.721,0.46,17.9,11.34,39.383,18.583
		c12.331,4.156,23.573,6.227,33.549,6.227c13.923,0,25.378-4.035,33.86-12.061c2.006-1.898,2.093-5.063,0.195-7.068
		C167.402,256.892,164.236,256.802,162.232,258.701z"/>
	<path d="M296.999,212c-2.71,0-4.937,2.166-4.997,4.889c-0.062,2.761,2.127,5.049,4.888,5.11c15.587,0.346,27.918,3.049,35.907,5.43
		c-14.783,4.608-42.062,6.853-66.855,8.892c-6.557,0.539-13.337,1.097-20.054,1.699c-54.348,4.877-65.693,29.946-66.149,31.011
		c-1.088,2.538,0.074,5.51,2.612,6.598c0.65,0.278,1.325,0.41,1.988,0.41c1.927,0,3.754-1.116,4.563-3.004
		c0.024-0.052,2.456-5.167,10.619-10.761c7.7-5.277,22.149-12.04,47.261-14.294c6.68-0.599,13.44-1.155,19.979-1.692
		c46.225-3.802,75.005-6.707,83.886-18.049c2.303-2.94,3.21-6.411,2.624-10.036c-0.44-2.727-3.002-4.587-5.733-4.138
		c-2.726,0.439-4.578,3.007-4.138,5.733c0.038,0.238,0.048,0.457,0.038,0.666c-7.151-2.774-23.429-7.955-46.325-8.463
		C297.074,212,297.036,212,296.999,212z"/>
	<path d="M314.37,181.764c12.835,1.349,25.632,4.662,38.036,9.85c0.63,0.264,1.283,0.388,1.927,0.388
		c1.956,0,3.813-1.154,4.615-3.072c1.065-2.547-0.137-5.477-2.685-6.542c-13.302-5.563-27.045-9.118-40.849-10.568
		c-2.743-0.277-5.206,1.704-5.495,4.45C309.632,179.015,311.624,181.476,314.37,181.764z"/>
	<path d="M189.335,171.666c0,2.762,2.239,5,5,5c19.928,0,27.853,5.153,37.03,11.12c5.009,3.256,10.686,6.947,18.548,9.896
		c9.836,3.688,22.594,4.735,33.915,4.735c14.317,0,26.335-1.676,27.215-1.801c2.733-0.391,4.633-2.924,4.243-5.657
		c-0.391-2.734-2.932-4.632-5.657-4.243c-0.36,0.053-36.301,5.066-56.204-2.397c-6.84-2.564-11.806-5.794-16.608-8.916
		c-9.63-6.262-19.588-12.736-42.481-12.736C191.573,166.666,189.335,168.905,189.335,171.666z"/>
</g>
<g>
</g>
<g>
</g>
<g>
</g>
<g>
</g>
<g>
</g>
<g>
</g>
<g>
</g>
<g>
</g>
<g>
</g>
<g>
</g>
<g>
</g>
<g>
</g>
<g>
</g>
<g>
</g>
<g>
</g>
</svg>
